<svg class="nav-icon" width="21" height="21" viewBox="0 0 21 21" fill="none" xmlns="http://www.w3.org/2000/svg">
<g clip-path="url(#clip0_11_95)">
<path d="M9.64951 13.9797H11.0473V15.4448H9.64951V13.9797ZM7.27502 8.33818C7.27502 7.32776 7.56131 6.50259 8.13388 5.8795C8.70645 5.2564 9.49795 4.95328 10.4915 4.95328C11.4177 4.95328 12.1587 5.22272 12.7145 5.74477C13.2702 6.26682 13.5565 6.95728 13.5565 7.76561C13.5565 8.27082 13.4554 8.67499 13.2533 8.97812C13.0513 9.28124 12.6302 9.75277 12.024 10.3422C11.5693 10.78 11.283 11.1505 11.1483 11.4536C11.0136 11.7568 10.9462 12.2115 10.9462 12.8009H9.68319C9.68319 12.1273 9.76739 11.5884 9.91896 11.1842C10.0705 10.78 10.4242 10.3085 10.9631 9.76961L11.5356 9.21388C11.704 9.06232 11.8388 8.89392 11.9398 8.70867C12.125 8.40555 12.2261 8.08558 12.2261 7.76561C12.2261 7.31092 12.0914 6.90676 11.8051 6.56995C11.5356 6.23314 11.0809 6.06474 10.441 6.06474C9.64951 6.06474 9.11062 6.35103 8.80749 6.94044C8.63909 7.2604 8.53805 7.73193 8.52121 8.33818H7.25818H7.27502Z" fill="#7A7B7B"/>
<path fill-rule="evenodd" clip-rule="evenodd" d="M10.4747 0.473755C15.9983 0.473755 20.4778 4.8354 20.4778 10.2075C20.4778 15.5795 15.9983 19.9412 10.4747 19.9412C4.95106 19.9412 0.471529 15.5795 0.471529 10.2075C0.471529 4.8354 4.95106 0.473755 10.4747 0.473755V0.473755Z" stroke="#7A7B7B" stroke-width="0.943059" stroke-miterlimit="22.9256"/>
</g>
<defs>
<clipPath id="clip0_11_95">
<rect width="20.9325" height="20.3981" fill="white"/>
</clipPath>
</defs>
</svg>
