<svg width="21" height="19" viewBox="0 0 21 19" fill="none" xmlns="http://www.w3.org/2000/svg">
<g clip-path="url(#clip0_11_50)">
<path d="M16.9921 17.9893C17.3454 17.9893 17.6315 17.7033 17.6315 17.35V10.4353H19.3307C19.9532 10.4353 20.4579 9.93063 20.4579 9.30815C20.4579 8.95485 20.2896 8.63519 20.0373 8.4333C14.9565 4.02544 15.3939 4.41239 11.1879 0.761603C10.7673 0.391477 10.1448 0.391477 9.72422 0.761603L0.841196 8.46695C0.487894 8.76978 0.353303 9.2745 0.521542 9.71192C0.689781 10.1493 1.11038 10.4353 1.58145 10.4353H3.28066V17.35C3.28066 17.7033 3.56667 17.9893 3.93679 17.9893H7.75582V12.9589C7.75582 12.2523 8.32783 11.6635 9.03444 11.6635H11.8609C12.5675 11.6635 13.1563 12.2355 13.1563 12.9589V17.9893H16.9753H16.9921Z" stroke="#7A7B7B" stroke-width="0.942139" stroke-miterlimit="10"/>
</g>
<defs>
<clipPath id="clip0_11_50">
<rect width="20.9458" height="18.4649" fill="white"/>
</clipPath>
</defs>
</svg>
