<svg class="nav-icon" width="21" height="19" viewBox="0 0 21 19" fill="none" xmlns="http://www.w3.org/2000/svg">
<g clip-path="url(#clip0_11_63)">
<path d="M18.2152 10.8359C17.9629 10.8359 17.7106 10.8023 17.4752 10.735C17.2901 10.6846 17.1556 10.5164 17.1556 10.3482V6.21066C17.1556 6.02565 17.2901 5.87427 17.4752 5.82382C17.7106 5.75654 17.9629 5.7229 18.2152 5.7229C19.7289 5.7229 20.9567 6.86661 20.9567 8.27942C20.9567 9.69223 19.7289 10.8359 18.2152 10.8359ZM18.047 10.0118C18.0975 10.0118 18.1647 10.0118 18.2152 10.0118C19.2412 10.0118 20.0821 9.22129 20.0821 8.2626C20.0821 7.3039 19.2412 6.5134 18.2152 6.5134C18.1479 6.5134 18.0975 6.5134 18.047 6.5134V9.97816V10.0118Z" fill="#7D7D7D"/>
<path d="M16.7351 16.5376H16.4324C15.7091 16.5376 15.1205 15.9826 15.1205 15.3098V1.21535C15.1205 0.542582 15.7091 -0.0124512 16.4324 -0.0124512H16.7351C17.4583 -0.0124512 18.047 0.542582 18.047 1.21535V15.3098C18.047 15.9826 17.4583 16.5376 16.7351 16.5376ZM16.4324 0.81169C16.1969 0.81169 15.9951 0.996701 15.9951 1.21535V15.3098C15.9951 15.5285 16.1969 15.7135 16.4324 15.7135H16.7351C16.9706 15.7135 17.1724 15.5285 17.1724 15.3098V1.21535C17.1724 0.996701 16.9706 0.81169 16.7351 0.81169H16.4324Z" fill="#7D7D7D"/>
<path d="M2.47242 10.6846C2.4556 10.6846 2.43878 10.6846 2.42196 10.6846C1.7492 10.6005 1.07643 10.5668 0.437299 10.5668C0.20183 10.5668 0 10.3818 0 10.1632V6.4293C0 6.21065 0.20183 6.02564 0.437299 6.02564C1.07643 6.02564 1.7492 5.992 2.42196 5.90791C2.5397 5.89109 2.67425 5.92473 2.75835 6.00882C2.85926 6.09292 2.90972 6.19383 2.90972 6.31157V10.2977C2.90972 10.4155 2.85926 10.5332 2.75835 10.6005C2.67425 10.6677 2.57334 10.7014 2.47242 10.7014V10.6846ZM0.857779 9.74268C1.24462 9.7595 1.63146 9.77632 2.03512 9.80996V6.73205C1.63146 6.76569 1.24462 6.79932 0.857779 6.79932V9.72587V9.74268Z" fill="#7D7D7D"/>
<path d="M15.5578 15.7471C15.4737 15.7471 15.3896 15.7303 15.3055 15.6799C12.5976 13.9643 9.7215 12.6188 6.72768 11.6937C6.13901 11.5087 5.49988 11.3405 4.84393 11.1723C4.65892 11.1219 4.47391 11.0882 4.30572 11.0378C3.53203 10.8527 2.87608 10.735 2.42197 10.6677C2.20332 10.6509 2.03512 10.4659 2.03512 10.2641V6.27793C2.03512 6.0761 2.20332 5.89108 2.42197 5.87426C2.99382 5.80699 3.80114 5.6388 4.84393 5.38651C6.67722 4.93239 8.51052 4.31008 10.2765 3.55322C12.0257 2.79635 13.7076 1.90493 15.3055 0.878962C15.44 0.794866 15.6082 0.778047 15.7596 0.862143C15.911 0.92942 15.9951 1.06397 15.9951 1.21535V15.3435C15.9951 15.4948 15.911 15.6294 15.7596 15.6967C15.6923 15.7303 15.625 15.7471 15.5578 15.7471ZM2.90972 9.91087C3.34702 9.97815 3.88524 10.0959 4.50755 10.2473C4.67574 10.2809 4.86075 10.3314 5.04576 10.3818C5.73535 10.55 6.3913 10.735 6.99679 10.92C9.82241 11.7946 12.5471 13.0224 15.1205 14.5866V1.98903C13.6908 2.86363 12.1939 3.63731 10.6466 4.31008C8.83008 5.10058 6.94633 5.72289 5.06258 6.19383C4.18798 6.41248 3.48158 6.56385 2.90972 6.64795V9.92769V9.91087Z" fill="#7D7D7D"/>
<path d="M6.86223 18.4718H4.40663C4.17116 18.4718 3.96933 18.2868 3.96933 18.0682V10.6341C3.96933 10.5164 4.03661 10.3986 4.13752 10.3145C4.23844 10.2304 4.37299 10.2136 4.50755 10.2304C4.69256 10.2641 4.87757 10.3145 5.06258 10.365C5.75217 10.5332 6.40812 10.7182 7.01361 10.9032C7.19862 10.9537 7.31635 11.1219 7.31635 11.29V18.0682C7.31635 18.2868 7.11452 18.4718 6.87905 18.4718H6.86223ZM4.84393 17.6477H6.42494V11.576C5.92036 11.4246 5.39896 11.2732 4.84393 11.1387V17.6309V17.6477Z" fill="#7D7D7D"/>
</g>
<defs>
<clipPath id="clip0_11_63">
<rect width="20.9567" height="18.4762" fill="white"/>
</clipPath>
</defs>
</svg>
