<svg class="nav-icon" width="21" height="21" viewBox="0 0 21 21" fill="none" xmlns="http://www.w3.org/2000/svg">
<g clip-path="url(#clip0_11_100)">
<path d="M17.9277 9.10222C17.6418 9.10222 17.4063 8.93404 17.4063 8.71541V5.77232C17.3895 -0.769761 3.44763 -0.70249 3.46444 5.77232V8.71541C3.46444 8.91722 3.229 9.10222 2.9431 9.10222C2.65719 9.10222 2.42175 8.93404 2.42175 8.71541V5.77232C2.42175 -1.947 18.3481 -1.93018 18.3481 5.77232V8.71541C18.3817 8.91722 18.1463 9.10222 17.9108 9.10222H17.9277Z" fill="#7A7B7B"/>
<path d="M4.22124 16.2161H3.229C1.4295 16.2161 0 14.7866 0 12.9871V11.4735C0 9.67401 1.4295 8.24451 3.229 8.24451H4.22124C4.62486 8.24451 4.97803 8.56404 4.97803 9.0013C4.97803 9.2872 4.74259 9.52265 4.45669 9.52265C4.25487 9.52265 4.10352 9.40493 4.01943 9.2872H3.229C2.0013 9.2872 0.992243 10.2794 0.992243 11.524V13.0375C0.992243 14.2652 1.98449 15.2743 3.229 15.2743H4.01943C4.10352 15.1229 4.25487 15.0389 4.45669 15.0389C4.74259 15.0389 4.97803 15.2743 4.97803 15.5602C4.97803 15.8797 4.62486 16.2329 4.22124 16.2329V16.2161Z" fill="#7A7B7B"/>
<path d="M4.97803 15.6948H5.97028V8.73224H4.97803V15.6948ZM6.45799 16.687H4.4735C4.1876 16.687 3.95216 16.4516 3.95216 16.1657V8.19408C3.95216 7.90818 4.1876 7.67273 4.4735 7.67273H6.45799C6.74389 7.67273 6.97934 7.90818 6.97934 8.19408V16.1657C6.97934 16.4516 6.74389 16.687 6.45799 16.687Z" fill="#7A7B7B"/>
<path d="M17.7258 16.2161H16.7336C16.33 16.2161 15.9768 15.8966 15.9768 15.4593C15.9768 15.1734 16.2122 14.938 16.4981 14.938C16.7 14.938 16.8513 15.0557 16.9354 15.1734H17.7258C18.9535 15.1734 19.9626 14.1812 19.9626 12.9367V11.4231C19.9626 10.1954 18.9703 9.18631 17.7258 9.18631H16.9354C16.8513 9.33767 16.7 9.42176 16.4981 9.42176C16.2122 9.42176 15.9768 9.18631 15.9768 8.90041C15.9768 8.49679 16.2963 8.14362 16.7336 8.14362H17.7258C19.5253 8.14362 20.9548 9.57312 20.9548 11.3726V12.8862C20.9885 14.7193 19.5253 16.1993 17.7258 16.1993V16.2161Z" fill="#7A7B7B"/>
<path d="M14.9341 15.6948H15.9263V8.73224H14.9341V15.6948ZM16.4141 16.687H14.4296C14.1437 16.687 13.9082 16.4516 13.9082 16.1657V8.19408C13.9082 7.90818 14.1437 7.67273 14.4296 7.67273H16.4141C16.7 7.67273 16.9354 7.90818 16.9354 8.19408V16.1657C16.9354 16.4516 16.7 16.687 16.4141 16.687Z" fill="#7A7B7B"/>
<path d="M16.969 19.6805H9.95607C9.67017 19.6805 9.43472 19.4451 9.43472 19.1592C9.43472 18.8733 9.67017 18.6378 9.95607 18.6378H16.969C17.4904 18.6378 17.9277 18.2006 17.9277 17.6792V15.6947C17.9277 15.4088 18.1631 15.1734 18.449 15.1734C18.7349 15.1734 18.9703 15.4088 18.9703 15.6947V17.7297C18.9367 18.806 18.0622 19.6805 16.9859 19.6805H16.969Z" fill="#7A7B7B"/>
<path d="M9.19927 18.6883C9.08155 18.6883 8.96382 18.806 8.96382 18.9237V19.4451C8.96382 19.5628 9.08155 19.6805 9.19927 19.6805C9.317 19.6805 9.43472 19.5628 9.43472 19.4451V18.9237C9.43472 18.8396 9.40108 18.7724 9.35063 18.7724C9.317 18.7387 9.23291 18.6883 9.19927 18.6883ZM9.19927 20.6728C8.52656 20.6728 7.97158 20.1178 7.97158 19.4451V18.9237C7.97158 18.251 8.52656 17.696 9.19927 17.696C9.51881 17.696 9.83834 17.8138 10.0738 18.0492C10.3092 18.2847 10.427 18.6042 10.427 18.9237V19.4451C10.427 20.1178 9.87198 20.6728 9.19927 20.6728Z" fill="#7A7B7B"/>
</g>
<defs>
<clipPath id="clip0_11_100">
<rect width="20.9548" height="20.6767" fill="white"/>
</clipPath>
</defs>
</svg>
